<svg width="56" height="10" viewBox="0 0 56 10" fill="none" xmlns="http://www.w3.org/2000/svg">
<path d="M0.118075 9.5249V1.27319H4.04004C4.58376 1.27319 5.01953 1.35714 5.34736 1.52506C5.67519 1.68497 5.91506 1.92085 6.06698 2.23269C6.21891 2.53653 6.29487 2.90834 6.29487 3.34811C6.29487 3.71592 6.24289 4.03176 6.13895 4.29562C6.043 4.55948 5.89108 4.77537 5.68319 4.94328C5.47529 5.1032 5.20743 5.21914 4.8796 5.2911V5.33908C5.2634 5.41104 5.56325 5.53497 5.77913 5.71088C6.00302 5.88679 6.15894 6.11068 6.24689 6.38253C6.33485 6.65439 6.37882 6.97423 6.37882 7.34204C6.37882 7.65387 6.34284 7.94572 6.27088 8.21758C6.19892 8.48144 6.07498 8.70933 5.89907 8.90123C5.73116 9.09313 5.49528 9.24505 5.19144 9.35699C4.8876 9.46893 4.4998 9.5249 4.02804 9.5249H0.118075ZM1.47337 8.38549H3.62026C3.98806 8.38549 4.27192 8.34951 4.47181 8.27755C4.67171 8.19759 4.81164 8.06966 4.8916 7.89375C4.97955 7.70985 5.02353 7.46597 5.02353 7.16213C5.02353 6.85029 4.97955 6.60642 4.8916 6.43051C4.80364 6.24661 4.65572 6.11867 4.44783 6.04671C4.24793 5.96675 3.97207 5.92677 3.62026 5.92677H1.47337V8.38549ZM1.47337 4.77537H3.57228C3.90011 4.77537 4.15998 4.73539 4.35188 4.65543C4.55177 4.57547 4.6997 4.45154 4.79565 4.28362C4.8916 4.10772 4.93957 3.88383 4.93957 3.61197C4.93957 3.30813 4.89959 3.07225 4.81963 2.90434C4.73967 2.72843 4.60375 2.6045 4.41184 2.53253C4.21994 2.46057 3.94009 2.42459 3.57228 2.42459H1.47337V4.77537ZM11.0649 9.62085C10.6411 9.62085 10.2933 9.57288 10.0215 9.47693C9.7576 9.37298 9.5537 9.22106 9.40978 9.02116C9.27385 8.82127 9.1819 8.5734 9.13392 8.27755C9.08595 7.9817 9.06196 7.63388 9.06196 7.23409V3.40808H10.3333V6.73035C10.3333 7.13015 10.3453 7.44998 10.3693 7.68986C10.4013 7.92174 10.4612 8.09764 10.5492 8.21758C10.6371 8.32952 10.7651 8.40149 10.933 8.43347C11.1089 8.46545 11.3408 8.48144 11.6286 8.48144C11.9485 8.48144 12.2043 8.44147 12.3962 8.36151C12.5881 8.28155 12.7281 8.16161 12.816 8.00169C12.912 7.84178 12.9719 7.64188 12.9959 7.40201C13.0199 7.16213 13.0319 6.88227 13.0319 6.56244V3.40808H14.3152V9.5249H13.1398L13.0919 8.70933H13.0079C12.92 8.90123 12.792 9.06514 12.6241 9.20107C12.4642 9.337 12.2563 9.44095 12.0004 9.51291C11.7446 9.58487 11.4327 9.62085 11.0649 9.62085ZM19.3011 9.62085C19.0612 9.62085 18.8013 9.61286 18.5215 9.59686C18.2496 9.58087 17.9818 9.56088 17.7179 9.5369C17.454 9.51291 17.2182 9.48492 17.0103 9.45294V8.44546C17.1462 8.45346 17.2981 8.46545 17.466 8.48144C17.6419 8.49744 17.8258 8.50943 18.0177 8.51743C18.2096 8.52542 18.3975 8.53342 18.5815 8.54141C18.7654 8.54941 18.9453 8.55341 19.1212 8.55341C19.505 8.55341 19.7808 8.52942 19.9487 8.48144C20.1247 8.43347 20.2366 8.35351 20.2846 8.24157C20.3405 8.12163 20.3685 7.96971 20.3685 7.78581C20.3685 7.57791 20.3485 7.42599 20.3086 7.33004C20.2766 7.23409 20.2126 7.17013 20.1167 7.13814C20.0207 7.10616 19.8728 7.07817 19.6729 7.05419L18.1857 6.87428C17.8019 6.8343 17.51 6.74635 17.3101 6.61042C17.1182 6.46649 16.9863 6.27459 16.9143 6.03472C16.8504 5.78684 16.8184 5.487 16.8184 5.13518C16.8184 4.72739 16.8743 4.40356 16.9863 4.16369C17.1062 3.91582 17.2701 3.73191 17.478 3.61197C17.6939 3.49204 17.9538 3.41208 18.2576 3.3721C18.5615 3.33212 18.8933 3.31213 19.2531 3.31213C19.477 3.31213 19.7089 3.32013 19.9487 3.33612C20.1966 3.35211 20.4325 3.3761 20.6564 3.40808C20.8883 3.43207 21.0882 3.46005 21.2561 3.49204V4.49951C21.0642 4.47553 20.8563 4.45554 20.6324 4.43954C20.4085 4.42355 20.1846 4.41156 19.9607 4.40356C19.7448 4.38757 19.537 4.37957 19.3371 4.37957C19.0412 4.37957 18.7973 4.39557 18.6054 4.42755C18.4135 4.45154 18.2696 4.5155 18.1737 4.61945C18.0857 4.7154 18.0417 4.88331 18.0417 5.12319C18.0417 5.30709 18.0537 5.44702 18.0777 5.54297C18.1097 5.63092 18.1697 5.69489 18.2576 5.73487C18.3536 5.76685 18.4975 5.79484 18.6894 5.81883L20.2966 6.01073C20.6004 6.04271 20.8443 6.10668 21.0282 6.20263C21.2201 6.29058 21.36 6.4545 21.448 6.69437C21.5439 6.92625 21.5919 7.28207 21.5919 7.76182C21.5919 8.16161 21.5399 8.48544 21.436 8.73331C21.34 8.97319 21.1921 9.16109 20.9922 9.29702C20.7923 9.42495 20.5484 9.50891 20.2606 9.54889C19.9807 9.59686 19.6609 9.62085 19.3011 9.62085ZM24.0752 1.87288V0.613531H25.4065V1.87288H24.0752ZM24.0991 9.5249V3.40808H25.3705V9.5249H24.0991ZM28.2211 9.5249V3.40808H29.3965L29.4324 4.22366H29.5284C29.6243 4.02376 29.7523 3.85985 29.9122 3.73191C30.0721 3.59598 30.28 3.49204 30.5359 3.42007C30.7917 3.34811 31.1036 3.31213 31.4714 3.31213C31.9032 3.31213 32.251 3.3641 32.5148 3.46805C32.7787 3.564 32.9786 3.71192 33.1145 3.91182C33.2505 4.11171 33.3424 4.35959 33.3904 4.65543C33.4464 4.95128 33.4743 5.2991 33.4743 5.69889V9.5249H32.191V6.20263C32.191 5.80284 32.175 5.487 32.143 5.25512C32.119 5.01524 32.0631 4.83934 31.9751 4.72739C31.8872 4.60746 31.7552 4.5315 31.5793 4.49951C31.4114 4.46753 31.1835 4.45154 30.8957 4.45154C30.5758 4.45154 30.32 4.49152 30.1281 4.57148C29.9442 4.65143 29.8042 4.77137 29.7083 4.93129C29.6203 5.09121 29.5604 5.2911 29.5284 5.53098C29.5044 5.77085 29.4924 6.05071 29.4924 6.37054V9.5249H28.2211ZM38.9279 9.62085C38.4082 9.62085 37.9764 9.58887 37.6326 9.5249C37.2888 9.45294 37.0129 9.341 36.8051 9.18908C36.5972 9.02916 36.4412 8.82926 36.3373 8.58939C36.2333 8.34152 36.1654 8.04567 36.1334 7.70185C36.1014 7.35003 36.0854 6.94224 36.0854 6.47848C36.0854 5.92677 36.1134 5.45102 36.1694 5.05123C36.2254 4.65143 36.3413 4.3236 36.5172 4.06774C36.6931 3.80387 36.965 3.61197 37.3328 3.49204C37.7086 3.3721 38.2083 3.31213 38.832 3.31213C39.3197 3.31213 39.7195 3.35211 40.0314 3.43207C40.3432 3.50403 40.5871 3.61997 40.763 3.77989C40.9469 3.9398 41.0788 4.1477 41.1588 4.40356C41.2467 4.65143 41.3027 4.95128 41.3267 5.3031C41.3507 5.64692 41.3627 6.03871 41.3627 6.47848V6.88627H37.3688C37.3688 7.24609 37.3847 7.53793 37.4167 7.76182C37.4487 7.97771 37.5207 8.14562 37.6326 8.26556C37.7526 8.3775 37.9365 8.45746 38.1843 8.50543C38.4402 8.54541 38.784 8.5654 39.2158 8.5654C39.3997 8.5654 39.5996 8.5614 39.8155 8.55341C40.0394 8.54541 40.2673 8.52942 40.4991 8.50543C40.731 8.48144 40.9389 8.46145 41.1228 8.44546V9.44095C40.9469 9.47293 40.735 9.50091 40.4871 9.5249C40.2393 9.55689 39.9794 9.58087 39.7075 9.59686C39.4357 9.61286 39.1758 9.62085 38.9279 9.62085ZM40.1393 6.20263V5.97475C40.1393 5.61493 40.1153 5.33108 40.0674 5.12319C40.0274 4.9073 39.9554 4.74738 39.8515 4.64344C39.7555 4.5315 39.6196 4.45953 39.4437 4.42755C39.2758 4.38757 39.0639 4.36758 38.808 4.36758C38.4882 4.36758 38.2323 4.39157 38.0404 4.43954C37.8565 4.47952 37.7166 4.55948 37.6206 4.67942C37.5247 4.79936 37.4567 4.96727 37.4167 5.18316C37.3847 5.39105 37.3688 5.66691 37.3688 6.01073H40.3552L40.1393 6.20263ZM46.1076 9.62085C45.8677 9.62085 45.6079 9.61286 45.328 9.59686C45.0562 9.58087 44.7883 9.56088 44.5244 9.5369C44.2606 9.51291 44.0247 9.48492 43.8168 9.45294V8.44546C43.9527 8.45346 44.1047 8.46545 44.2726 8.48144C44.4485 8.49744 44.6324 8.50943 44.8243 8.51743C45.0162 8.52542 45.2041 8.53342 45.388 8.54141C45.5719 8.54941 45.7518 8.55341 45.9277 8.55341C46.3115 8.55341 46.5874 8.52942 46.7553 8.48144C46.9312 8.43347 47.0431 8.35351 47.0911 8.24157C47.1471 8.12163 47.1751 7.96971 47.1751 7.78581C47.1751 7.57791 47.1551 7.42599 47.1151 7.33004C47.0831 7.23409 47.0191 7.17013 46.9232 7.13814C46.8272 7.10616 46.6793 7.07817 46.4794 7.05419L44.9922 6.87428C44.6084 6.8343 44.3166 6.74635 44.1167 6.61042C43.9248 6.46649 43.7928 6.27459 43.7209 6.03472C43.6569 5.78684 43.6249 5.487 43.6249 5.13518C43.6249 4.72739 43.6809 4.40356 43.7928 4.16369C43.9128 3.91582 44.0767 3.73191 44.2846 3.61197C44.5005 3.49204 44.7603 3.41208 45.0642 3.3721C45.368 3.33212 45.6998 3.31213 46.0596 3.31213C46.2835 3.31213 46.5154 3.32013 46.7553 3.33612C47.0032 3.35211 47.239 3.3761 47.4629 3.40808C47.6948 3.43207 47.8947 3.46005 48.0626 3.49204V4.49951C47.8707 4.47553 47.6628 4.45554 47.4389 4.43954C47.215 4.42355 46.9912 4.41156 46.7673 4.40356C46.5514 4.38757 46.3435 4.37957 46.1436 4.37957C45.8478 4.37957 45.6039 4.39557 45.412 4.42755C45.2201 4.45154 45.0762 4.5155 44.9802 4.61945C44.8923 4.7154 44.8483 4.88331 44.8483 5.12319C44.8483 5.30709 44.8603 5.44702 44.8843 5.54297C44.9162 5.63092 44.9762 5.69489 45.0642 5.73487C45.1601 5.76685 45.304 5.79484 45.4959 5.81883L47.1031 6.01073C47.4069 6.04271 47.6508 6.10668 47.8347 6.20263C48.0266 6.29058 48.1666 6.4545 48.2545 6.69437C48.3505 6.92625 48.3984 7.28207 48.3984 7.76182C48.3984 8.16161 48.3465 8.48544 48.2425 8.73331C48.1466 8.97319 47.9986 9.16109 47.7987 9.29702C47.5988 9.42495 47.355 9.50891 47.0671 9.54889C46.7873 9.59686 46.4674 9.62085 46.1076 9.62085ZM53.0406 9.62085C52.8007 9.62085 52.5408 9.61286 52.261 9.59686C51.9891 9.58087 51.7213 9.56088 51.4574 9.5369C51.1935 9.51291 50.9577 9.48492 50.7498 9.45294V8.44546C50.8857 8.45346 51.0376 8.46545 51.2055 8.48144C51.3814 8.49744 51.5654 8.50943 51.7573 8.51743C51.9492 8.52542 52.1371 8.53342 52.321 8.54141C52.5049 8.54941 52.6848 8.55341 52.8607 8.55341C53.2445 8.55341 53.5203 8.52942 53.6882 8.48144C53.8642 8.43347 53.9761 8.35351 54.0241 8.24157C54.08 8.12163 54.108 7.96971 54.108 7.78581C54.108 7.57791 54.088 7.42599 54.0481 7.33004C54.0161 7.23409 53.9521 7.17013 53.8562 7.13814C53.7602 7.10616 53.6123 7.07817 53.4124 7.05419L51.9252 6.87428C51.5414 6.8343 51.2495 6.74635 51.0496 6.61042C50.8577 6.46649 50.7258 6.27459 50.6538 6.03472C50.5899 5.78684 50.5579 5.487 50.5579 5.13518C50.5579 4.72739 50.6138 4.40356 50.7258 4.16369C50.8457 3.91582 51.0096 3.73191 51.2175 3.61197C51.4334 3.49204 51.6933 3.41208 51.9971 3.3721C52.301 3.33212 52.6328 3.31213 52.9926 3.31213C53.2165 3.31213 53.4484 3.32013 53.6882 3.33612C53.9361 3.35211 54.172 3.3761 54.3959 3.40808C54.6278 3.43207 54.8277 3.46005 54.9956 3.49204V4.49951C54.8037 4.47553 54.5958 4.45554 54.3719 4.43954C54.148 4.42355 53.9241 4.41156 53.7002 4.40356C53.4844 4.38757 53.2765 4.37957 53.0766 4.37957C52.7807 4.37957 52.5368 4.39557 52.3449 4.42755C52.153 4.45154 52.0091 4.5155 51.9132 4.61945C51.8252 4.7154 51.7812 4.88331 51.7812 5.12319C51.7812 5.30709 51.7932 5.44702 51.8172 5.54297C51.8492 5.63092 51.9092 5.69489 51.9971 5.73487C52.0931 5.76685 52.237 5.79484 52.4289 5.81883L54.0361 6.01073C54.3399 6.04271 54.5838 6.10668 54.7677 6.20263C54.9596 6.29058 55.0995 6.4545 55.1875 6.69437C55.2834 6.92625 55.3314 7.28207 55.3314 7.76182C55.3314 8.16161 55.2794 8.48544 55.1755 8.73331C55.0795 8.97319 54.9316 9.16109 54.7317 9.29702C54.5318 9.42495 54.2879 9.50891 54.0001 9.54889C53.7202 9.59686 53.4004 9.62085 53.0406 9.62085Z" fill="black"/>
</svg>
