<svg width="28" height="29" viewBox="0 0 28 29" fill="none" xmlns="http://www.w3.org/2000/svg">
<g id="Facebook logo 2019" clip-path="url(#clip0_51_4397)">
<path id="Vector" d="M28 14.9369C28 7.2049 21.732 0.93689 14 0.93689C6.26801 0.93689 0 7.2049 0 14.9369C0 21.9247 5.1196 27.7165 11.8125 28.7667V18.9838H8.25781V14.9369H11.8125V11.8525C11.8125 8.34376 13.9026 6.40564 17.1005 6.40564C18.6322 6.40564 20.2344 6.67908 20.2344 6.67908V10.1244H18.469C16.7299 10.1244 16.1875 11.2036 16.1875 12.3107V14.9369H20.0703L19.4496 18.9838H16.1875V28.7667C22.8804 27.7165 28 21.9247 28 14.9369Z" fill="#E1BC5F"/>
<path id="Vector_2" d="M19.4496 18.9838L20.0703 14.9369H16.1875V12.3107C16.1875 11.2036 16.7299 10.1244 18.469 10.1244H20.2344V6.67908C20.2344 6.67908 18.6322 6.40564 17.1005 6.40564C13.9026 6.40564 11.8125 8.34376 11.8125 11.8525V14.9369H8.25781V18.9838H11.8125V28.7668C13.262 28.9936 14.738 28.9936 16.1875 28.7668V18.9838H19.4496Z" fill="#0B0B0B"/>
</g>
<defs>
<clipPath id="clip0_51_4397">
<rect width="28" height="28" fill="white" transform="translate(0 0.93689)"/>
</clipPath>
</defs>
</svg>
