<svg width="20" height="21" viewBox="0 0 20 21" fill="none" xmlns="http://www.w3.org/2000/svg">
<g id="FV" clip-path="url(#clip0_164_13175)">
<g id="Group">
<path id="Vector" d="M19.5833 10.2739L17.55 7.94893L17.8333 4.87393L14.825 4.19059L13.25 1.52393L10.4167 2.74059L7.58333 1.52393L6.00833 4.18226L3 4.85726L3.28333 7.94059L1.25 10.2739L3.28333 12.5989L3 15.6823L6.00833 16.3656L7.58333 19.0239L10.4167 17.7989L13.25 19.0156L14.825 16.3573L17.8333 15.6739L17.55 12.5989L19.5833 10.2739ZM8.825 14.2073L5.65833 11.0323L6.89167 9.79893L8.825 11.7406L13.7 6.84893L14.9333 8.08226L8.825 14.2073Z" fill="#00A976"/>
</g>
</g>
<defs>
<clipPath id="clip0_164_13175">
<rect width="20" height="20" fill="white" transform="translate(0 0.273926)"/>
</clipPath>
</defs>
</svg>
