<svg width="120" height="38" viewBox="0 0 120 38" fill="none" xmlns="http://www.w3.org/2000/svg">
<g id="Google Play">
<g id="Group">
<path id="BG" d="M114.875 38H5.12533C2.71194 38 0.735352 35.9012 0.735352 33.3385V5.36972C0.735352 2.80708 2.71194 0.708256 5.12533 0.708256H114.875C117.288 0.708256 119.265 2.80708 119.265 5.36972V33.3385C119.265 35.9012 117.288 38 114.875 38Z" fill="black"/>
<path id="Border" d="M114.875 1.45526C116.907 1.45526 118.561 3.21147 118.561 5.36972V33.3385C118.561 35.4968 116.907 37.253 114.875 37.253H5.12533C3.09277 37.253 1.43884 35.4968 1.43884 33.3385V5.36972C1.43884 3.21147 3.09277 1.45526 5.12533 1.45526H114.875ZM114.875 0.708256H5.12533C2.71194 0.708256 0.735352 2.80708 0.735352 5.36972V33.3385C0.735352 35.9012 2.71194 38 5.12533 38H114.875C117.288 38 119.265 35.9012 119.265 33.3385V5.36972C119.265 2.80708 117.288 0.708256 114.875 0.708256Z" fill="#A6A6A6"/>
<g id="GET IT ON">
<path id="G" d="M42.3685 10.2584C42.3685 11.0368 42.149 11.6603 41.7166 12.1253C41.2194 12.6765 40.5719 12.9539 39.7784 12.9539C39.02 12.9539 38.3725 12.6719 37.8413 12.116C37.309 11.5519 37.0435 10.8597 37.0435 10.0311C37.0435 9.20256 37.309 8.51034 37.8413 7.95096C38.3725 7.39042 39.02 7.1084 39.7784 7.1084C40.1559 7.1084 40.5159 7.19114 40.8594 7.34497C41.2019 7.49996 41.4806 7.70973 41.6826 7.96844L41.2238 8.46022C40.8715 8.01855 40.3919 7.80063 39.7784 7.80063C39.2253 7.80063 38.7457 8.00573 38.3385 8.41944C37.9357 8.83431 37.7338 9.37154 37.7338 10.0311C37.7338 10.6907 37.9357 11.2326 38.3385 11.6475C38.7457 12.0565 39.2253 12.2663 39.7784 12.2663C40.3656 12.2663 40.8594 12.0565 41.2491 11.6428C41.5059 11.369 41.6518 10.9914 41.6902 10.5089H39.7784V9.83536H42.329C42.3597 9.98103 42.3685 10.122 42.3685 10.2584Z" fill="white" stroke="white" stroke-width="0.0441128" stroke-miterlimit="10"/>
<path id="E" d="M46.4147 7.92334H44.0188V9.6947H46.1787V10.3683H44.0188V12.1396H46.4147V12.826H43.3406V7.23694H46.4147V7.92334Z" fill="white" stroke="white" stroke-width="0.0441128" stroke-miterlimit="10"/>
<path id="T" d="M49.2711 12.826H48.5928V7.92334H47.1233V7.23694H50.7417V7.92334H49.2711V12.826Z" fill="white" stroke="white" stroke-width="0.0441128" stroke-miterlimit="10"/>
<path id="I" d="M53.3606 12.826V7.23694H54.0378V12.826H53.3606Z" fill="white" stroke="white" stroke-width="0.0441128" stroke-miterlimit="10"/>
<path id="T_2" d="M57.0394 12.826H56.3666V7.92334H54.8916V7.23694H58.5144V7.92334H57.0394V12.826Z" fill="white" stroke="white" stroke-width="0.0441128" stroke-miterlimit="10"/>
<path id="O" d="M65.3637 12.1067C64.8446 12.6719 64.2015 12.9539 63.4343 12.9539C62.6628 12.9539 62.0197 12.6719 61.5005 12.1067C60.9825 11.5426 60.7246 10.8504 60.7246 10.0311C60.7246 9.21189 60.9825 8.51966 61.5005 7.95562C62.0197 7.39042 62.6628 7.1084 63.4343 7.1084C64.1971 7.1084 64.8402 7.39042 65.3593 7.96028C65.8817 8.52898 66.1396 9.21655 66.1396 10.0311C66.1396 10.8504 65.8817 11.5426 65.3637 12.1067ZM62.0021 11.6382C62.3928 12.0565 62.868 12.2663 63.4343 12.2663C63.9962 12.2663 64.4758 12.0565 64.8622 11.6382C65.2518 11.2198 65.4493 10.6826 65.4493 10.0311C65.4493 9.3797 65.2518 8.84246 64.8622 8.4241C64.4758 8.00573 63.9962 7.79596 63.4343 7.79596C62.868 7.79596 62.3928 8.00573 62.0021 8.4241C61.6125 8.84246 61.4149 9.3797 61.4149 10.0311C61.4149 10.6826 61.6125 11.2198 62.0021 11.6382Z" fill="white" stroke="white" stroke-width="0.0441128" stroke-miterlimit="10"/>
<path id="N" d="M67.0925 12.826V7.23694H67.9157L70.475 11.5838H70.5046L70.475 10.5093V7.23694H71.1522V12.826H70.4454L67.7653 8.26479H67.7357L67.7653 9.34392V12.826H67.0925Z" fill="white" stroke="white" stroke-width="0.0441128" stroke-miterlimit="10"/>
</g>
<g id="Google Play_2">
<path id="Google Play_3" d="M60.5571 20.9881C58.4949 20.9881 56.8102 22.6546 56.8102 24.9539C56.8102 27.2345 58.4949 28.9184 60.5571 28.9184C62.6237 28.9184 64.3083 27.2345 64.3083 24.9539C64.3083 22.6546 62.6237 20.9881 60.5571 20.9881ZM60.5571 27.3569C59.4256 27.3569 58.4521 26.3651 58.4521 24.9539C58.4521 23.524 59.4256 22.5497 60.5571 22.5497C61.6886 22.5497 62.6665 23.524 62.6665 24.9539C62.6665 26.3651 61.6886 27.3569 60.5571 27.3569ZM52.3819 20.9881C50.3153 20.9881 48.635 22.6546 48.635 24.9539C48.635 27.2345 50.3153 28.9184 52.3819 28.9184C54.4473 28.9184 56.1287 27.2345 56.1287 24.9539C56.1287 22.6546 54.4473 20.9881 52.3819 20.9881ZM52.3819 27.3569C51.2492 27.3569 50.2725 26.3651 50.2725 24.9539C50.2725 23.524 51.2492 22.5497 52.3819 22.5497C53.5134 22.5497 54.4868 23.524 54.4868 24.9539C54.4868 26.3651 53.5134 27.3569 52.3819 27.3569ZM42.6537 22.2036V23.8887H46.4433C46.3325 24.8303 46.0361 25.5226 45.5818 26.005C45.0286 26.5877 44.1671 27.2345 42.6537 27.2345C40.3215 27.2345 38.4953 25.2359 38.4953 22.7595C38.4953 20.2831 40.3215 18.2845 42.6537 18.2845C43.9147 18.2845 44.8322 18.8077 45.5094 19.486L46.6277 18.2985C45.6806 17.3382 44.4206 16.6005 42.6537 16.6005C39.4556 16.6005 36.7678 19.3636 36.7678 22.7595C36.7678 26.1554 39.4556 28.9184 42.6537 28.9184C44.3822 28.9184 45.6806 28.3171 46.7012 27.189C47.7471 26.0784 48.0731 24.5169 48.0731 23.2559C48.0731 22.8644 48.0424 22.5043 47.9875 22.2036H42.6537ZM82.4334 23.51C82.125 22.6231 81.1735 20.9881 79.2353 20.9881C77.3147 20.9881 75.7157 22.5952 75.7157 24.9539C75.7157 27.1751 77.2982 28.9184 79.4197 28.9184C81.1351 28.9184 82.125 27.8078 82.5322 27.1611L81.2591 26.2602C80.8344 26.9198 80.256 27.3569 79.4197 27.3569C78.5889 27.3569 77.9929 26.9525 77.611 26.1554L82.6057 23.961L82.4334 23.51ZM77.341 24.8303C77.2982 23.3014 78.4594 22.5182 79.2913 22.5182C79.9432 22.5182 80.4963 22.8644 80.6807 23.3596L77.341 24.8303ZM73.2814 28.6772H74.9233V17.0235H73.2814V28.6772ZM70.5926 21.8715H70.5377C70.1689 21.4077 69.4654 20.9881 68.5743 20.9881C66.7041 20.9881 64.9942 22.7315 64.9942 24.9667C64.9942 27.189 66.7041 28.9184 68.5743 28.9184C69.4654 28.9184 70.1689 28.4954 70.5377 28.0176H70.5926V28.5863C70.5926 30.1025 69.8298 30.917 68.5995 30.917C67.5964 30.917 66.9741 30.1479 66.7173 29.5011L65.2895 30.1339C65.701 31.1851 66.7908 32.4786 68.5995 32.4786C70.5245 32.4786 72.1488 31.276 72.1488 28.3497V21.2293H70.5926V21.8715ZM68.7147 27.3569C67.5832 27.3569 66.6361 26.3511 66.6361 24.9667C66.6361 23.5694 67.5832 22.5497 68.7147 22.5497C69.8298 22.5497 70.7089 23.5694 70.7089 24.9667C70.7089 26.3511 69.8298 27.3569 68.7147 27.3569ZM90.1202 17.0235H86.1934V28.6772H87.8309V24.2616H90.1202C91.9388 24.2616 93.7222 22.8644 93.7222 20.642C93.7222 18.4208 91.9344 17.0235 90.1202 17.0235ZM90.1631 22.6406H87.8309V18.6446H90.1631C91.3857 18.6446 92.0837 19.7225 92.0837 20.642C92.0837 21.544 91.3857 22.6406 90.1631 22.6406ZM100.285 20.966C99.1021 20.966 97.8718 21.5207 97.3659 22.7502L98.819 23.3969C99.1318 22.7502 99.7068 22.5404 100.315 22.5404C101.164 22.5404 102.026 23.0823 102.039 24.0391V24.1614C101.743 23.9796 101.108 23.7104 100.328 23.7104C98.763 23.7104 97.1683 24.6252 97.1683 26.3325C97.1683 27.8941 98.4502 28.8998 99.8912 28.8998C100.993 28.8998 101.601 28.3719 101.983 27.7577H102.039V28.6586H103.621V24.1882C103.621 22.122 102.167 20.966 100.285 20.966ZM100.088 27.3522C99.5521 27.3522 98.8058 27.0702 98.8058 26.3651C98.8058 25.4631 99.7365 25.117 100.542 25.117C101.263 25.117 101.601 25.286 102.039 25.5086C101.911 26.5877 101.036 27.3522 100.088 27.3522ZM109.382 21.2212L107.5 26.2731H107.444L105.498 21.2212H103.732L106.656 28.281L104.988 32.2094H106.699L111.204 21.2212H109.382ZM94.6222 28.6772H96.264V17.0235H94.6222V28.6772Z" fill="white"/>
</g>
</g>
</g>
</svg>
