<svg width="43" height="43" viewBox="0 0 43 43" fill="none" xmlns="http://www.w3.org/2000/svg">
<g id="Group 37078">
<path id="Vector" d="M21.5 0C17.2477 0 13.0909 1.26095 9.55525 3.6234C6.01959 5.98585 3.26388 9.34369 1.6366 13.2723C0.00931561 17.2009 -0.416456 21.5238 0.413126 25.6944C1.24271 29.865 3.29038 33.696 6.29721 36.7028C9.30404 39.7096 13.135 41.7573 17.3056 42.5869C21.4762 43.4165 25.7991 42.9907 29.7277 41.3634C33.6563 39.7361 37.0141 36.9804 39.3766 33.4448C41.739 29.9091 43 25.7523 43 21.5C43 18.6766 42.4439 15.8808 41.3634 13.2723C40.2829 10.6638 38.6993 8.29366 36.7028 6.2972C34.7063 4.30074 32.3362 2.71707 29.7277 1.63659C27.1192 0.556114 24.3234 0 21.5 0ZM28.4015 25.3485C28.603 25.5484 28.763 25.7862 28.8721 26.0482C28.9813 26.3102 29.0375 26.5912 29.0375 26.875C29.0375 27.1588 28.9813 27.4398 28.8721 27.7018C28.763 27.9638 28.603 28.2016 28.4015 28.4015C28.2016 28.603 27.9638 28.763 27.7018 28.8721C27.4398 28.9813 27.1588 29.0375 26.875 29.0375C26.5912 29.0375 26.3102 28.9813 26.0482 28.8721C25.7862 28.763 25.5484 28.603 25.3485 28.4015L21.5 24.5315L17.6515 28.4015C17.4516 28.603 17.2138 28.763 16.9518 28.8721C16.6898 28.9813 16.4088 29.0375 16.125 29.0375C15.8412 29.0375 15.5602 28.9813 15.2982 28.8721C15.0362 28.763 14.7984 28.603 14.5985 28.4015C14.397 28.2016 14.237 27.9638 14.1279 27.7018C14.0187 27.4398 13.9625 27.1588 13.9625 26.875C13.9625 26.5912 14.0187 26.3102 14.1279 26.0482C14.237 25.7862 14.397 25.5484 14.5985 25.3485L18.4685 21.5L14.5985 17.6515C14.1937 17.2466 13.9662 16.6975 13.9662 16.125C13.9662 15.5524 14.1937 15.0033 14.5985 14.5985C15.0034 14.1936 15.5525 13.9662 16.125 13.9662C16.6976 13.9662 17.2467 14.1936 17.6515 14.5985L21.5 18.4685L25.3485 14.5985C25.7534 14.1936 26.3025 13.9662 26.875 13.9662C27.4476 13.9662 27.9967 14.1936 28.4015 14.5985C28.8064 15.0033 29.0338 15.5524 29.0338 16.125C29.0338 16.6975 28.8064 17.2466 28.4015 17.6515L24.5315 21.5L28.4015 25.3485Z" fill="black"/>
<path id="Vector 25" d="M16 16L27 27M16 27L27 16" stroke="white" stroke-width="4" stroke-linecap="round"/>
</g>
</svg>
