<svg width="25" height="24" viewBox="0 0 25 24" fill="none" xmlns="http://www.w3.org/2000/svg">
<g id="hamburger menu">
<path id="Vector" d="M5.94434 7H19.9443C20.5443 7 20.9443 6.6 20.9443 6C20.9443 5.4 20.5443 5 19.9443 5H5.94434C5.34434 5 4.94434 5.4 4.94434 6C4.94434 6.6 5.34434 7 5.94434 7ZM5.94434 13H19.9443C20.5443 13 20.9443 12.6 20.9443 12C20.9443 11.4 20.5443 11 19.9443 11H5.94434C5.34434 11 4.94434 11.4 4.94434 12C4.94434 12.6 5.34434 13 5.94434 13ZM5.94434 19H19.9443C20.5443 19 20.9443 18.6 20.9443 18C20.9443 17.4 20.5443 17 19.9443 17H5.94434C5.34434 17 4.94434 17.4 4.94434 18C4.94434 18.6 5.34434 19 5.94434 19Z" fill="black"/>
</g>
</svg>
