<svg width="23" height="26" viewBox="0 0 23 26" fill="none" xmlns="http://www.w3.org/2000/svg">
<g id="Icon">
<path id="Vector" d="M1.17861 0.482739C0.900933 0.792011 0.740234 1.27352 0.740234 1.89709V24.1395C0.740234 24.763 0.900933 25.2445 1.17861 25.5538L1.24715 25.6217L12.9616 13.1629V12.8687L1.24715 0.409824L1.17861 0.482739Z" fill="url(#paint0_linear_201_18403)"/>
<path id="Vector_2" d="M16.8617 17.3179L12.9612 13.1628V12.8686L16.8664 8.7136L16.9538 8.76766L21.5787 11.5674C22.8985 12.362 22.8985 13.6695 21.5787 14.4691L16.9538 17.2638L16.8617 17.3179Z" fill="url(#paint1_linear_201_18403)"/>
<path id="Vector_3" d="M16.9542 17.2641L12.9615 13.016L1.17847 25.554C1.61684 26.0443 2.33172 26.1034 3.14467 25.6131L16.9542 17.2641Z" fill="url(#paint2_linear_201_18403)"/>
<path id="Vector_4" d="M16.9542 8.76731L3.14467 0.418247C2.33172 -0.0670316 1.61684 -0.00794435 1.17847 0.482362L12.9615 13.0154L16.9542 8.76731Z" fill="url(#paint3_linear_201_18403)"/>
</g>
<defs>
<linearGradient id="paint0_linear_201_18403" x1="11.9215" y1="24.3711" x2="-4.92513" y2="8.53733" gradientUnits="userSpaceOnUse">
<stop stop-color="#00A0FF"/>
<stop offset="0.0066" stop-color="#00A1FF"/>
<stop offset="0.2601" stop-color="#00BEFF"/>
<stop offset="0.5122" stop-color="#00D2FF"/>
<stop offset="0.7604" stop-color="#00DFFF"/>
<stop offset="1" stop-color="#00E3FF"/>
</linearGradient>
<linearGradient id="paint1_linear_201_18403" x1="23.2974" y1="13.0143" x2="0.424285" y2="13.0143" gradientUnits="userSpaceOnUse">
<stop stop-color="#FFE000"/>
<stop offset="0.4087" stop-color="#FFBD00"/>
<stop offset="0.7754" stop-color="#FFA500"/>
<stop offset="1" stop-color="#FF9C00"/>
</linearGradient>
<linearGradient id="paint2_linear_201_18403" x1="14.7831" y1="10.7067" x2="-8.06237" y2="-10.7652" gradientUnits="userSpaceOnUse">
<stop stop-color="#FF3A44"/>
<stop offset="1" stop-color="#C31162"/>
</linearGradient>
<linearGradient id="paint3_linear_201_18403" x1="-1.78757" y1="32.9534" x2="8.41394" y2="23.3653" gradientUnits="userSpaceOnUse">
<stop stop-color="#32A071"/>
<stop offset="0.0685" stop-color="#2DA771"/>
<stop offset="0.4762" stop-color="#15CF74"/>
<stop offset="0.8009" stop-color="#06E775"/>
<stop offset="1" stop-color="#00F076"/>
</linearGradient>
</defs>
</svg>
