<svg width="28" height="29" viewBox="0 0 28 29" fill="none" xmlns="http://www.w3.org/2000/svg">
<g id="Instagram" clip-path="url(#clip0_51_4400)">
<g id="Clip path group">
<mask id="mask0_51_4400" style="mask-type:luminance" maskUnits="userSpaceOnUse" x="0" y="0" width="28" height="29">
<g id="b">
<path id="Vector" d="M14 28.9369C21.732 28.9369 28 22.6689 28 14.9369C28 7.2049 21.732 0.93689 14 0.93689C6.26801 0.93689 0 7.2049 0 14.9369C0 22.6689 6.26801 28.9369 14 28.9369Z" fill="white"/>
</g>
</mask>
<g mask="url(#mask0_51_4400)">
<g id="Group">
<path id="Vector_2" d="M6.01562 57.5931C22.6273 57.5931 36.0938 44.1267 36.0938 27.515C36.0938 10.9033 22.6273 -2.56311 6.01562 -2.56311C-10.5961 -2.56311 -24.0625 10.9033 -24.0625 27.515C-24.0625 44.1267 -10.5961 57.5931 6.01562 57.5931Z" fill="#E1BC5F"/>
</g>
</g>
</g>
<path id="Vector_3" d="M17.9375 12.0931C18.5416 12.0931 19.0312 11.6035 19.0312 10.9994C19.0312 10.3953 18.5416 9.90564 17.9375 9.90564C17.3334 9.90564 16.8438 10.3953 16.8438 10.9994C16.8438 11.6035 17.3334 12.0931 17.9375 12.0931Z" fill="#111111"/>
<path id="Vector_4" d="M14 11.4369C13.3078 11.4369 12.6311 11.6422 12.0555 12.0267C11.4799 12.4113 11.0313 12.958 10.7664 13.5975C10.5015 14.237 10.4322 14.9408 10.5673 15.6197C10.7023 16.2986 11.0356 16.9223 11.5251 17.4118C12.0146 17.9012 12.6383 18.2346 13.3172 18.3696C13.9961 18.5047 14.6999 18.4354 15.3394 18.1705C15.9789 17.9056 16.5256 17.457 16.9101 16.8814C17.2947 16.3058 17.5 15.6291 17.5 14.9369C17.5 14.0086 17.1313 13.1184 16.4749 12.462C15.8185 11.8056 14.9283 11.4369 14 11.4369ZM14 16.6869C13.6539 16.6869 13.3155 16.5843 13.0278 16.392C12.74 16.1997 12.5157 15.9264 12.3832 15.6066C12.2508 15.2868 12.2161 14.9349 12.2836 14.5955C12.3512 14.256 12.5178 13.9442 12.7626 13.6995C13.0073 13.4547 13.3191 13.288 13.6586 13.2205C13.9981 13.153 14.3499 13.1876 14.6697 13.3201C14.9895 13.4526 15.2628 13.6769 15.4551 13.9646C15.6474 14.2524 15.75 14.5908 15.75 14.9369C15.75 15.401 15.5656 15.8461 15.2374 16.1743C14.9092 16.5025 14.4641 16.6869 14 16.6869Z" fill="#111111"/>
<path id="Vector_5" d="M18.375 7.93689H9.625C8.17525 7.93689 7 9.11214 7 10.5619V19.3119C7 20.7616 8.17525 21.9369 9.625 21.9369H18.375C19.8247 21.9369 21 20.7616 21 19.3119V10.5619C21 9.11214 19.8247 7.93689 18.375 7.93689Z" stroke="#111111" stroke-width="3" stroke-miterlimit="10"/>
</g>
<defs>
<clipPath id="clip0_51_4400">
<rect width="28" height="28" fill="white" transform="translate(0 0.93689)"/>
</clipPath>
</defs>
</svg>
