<svg width="28" height="29" viewBox="0 0 28 29" fill="none" xmlns="http://www.w3.org/2000/svg">
<g id="Linkedin" clip-path="url(#clip0_51_4391)">
<path id="Vector" d="M14 28.9369C21.732 28.9369 28 22.6689 28 14.9369C28 7.2049 21.732 0.93689 14 0.93689C6.26801 0.93689 0 7.2049 0 14.9369C0 22.6689 6.26801 28.9369 14 28.9369Z" fill="#E1BC5F"/>
<path id="Vector_2" d="M20.125 7.93689H7.875C7.64294 7.93689 7.42038 8.02908 7.25628 8.19317C7.09219 8.35727 7 8.57983 7 8.81189V21.0619C7 21.294 7.09219 21.5165 7.25628 21.6806C7.42038 21.8447 7.64294 21.9369 7.875 21.9369H20.125C20.3571 21.9369 20.5796 21.8447 20.7437 21.6806C20.9078 21.5165 21 21.294 21 21.0619V8.81189C21 8.57983 20.9078 8.35727 20.7437 8.19317C20.5796 8.02908 20.3571 7.93689 20.125 7.93689ZM11.375 19.7494H9.1875V13.1869H11.375V19.7494ZM10.2812 12.3119C10.0217 12.3119 9.7679 12.2349 9.55206 12.0907C9.33622 11.9465 9.168 11.7415 9.06866 11.5017C8.96932 11.2618 8.94333 10.9979 8.99397 10.7433C9.04461 10.4887 9.16962 10.2549 9.35317 10.0713C9.53673 9.88776 9.77059 9.76275 10.0252 9.71211C10.2798 9.66147 10.5437 9.68746 10.7835 9.7868C11.0234 9.88614 11.2283 10.0544 11.3726 10.2702C11.5168 10.486 11.5938 10.7398 11.5938 10.9994C11.5938 11.3475 11.4555 11.6813 11.2093 11.9275C10.9632 12.1736 10.6293 12.3119 10.2812 12.3119ZM18.8125 19.7494H16.625V15.3744C16.625 15.0113 16.135 14.7181 15.5312 14.7181C14.6562 14.7181 14.4375 15.8863 14.4375 16.2494V19.7494H12.25V13.1869H14.4375V14.7181C14.4375 13.6244 15.4175 13.1869 16.625 13.1869C17.2052 13.1869 17.7616 13.4174 18.1718 13.8276C18.582 14.2378 18.8125 14.7942 18.8125 15.3744V19.7494Z" fill="#111111"/>
</g>
<defs>
<clipPath id="clip0_51_4391">
<rect width="28" height="28" fill="white" transform="translate(0 0.93689)"/>
</clipPath>
</defs>
</svg>
