<svg width="17" height="17" viewBox="0 0 17 17" fill="none" xmlns="http://www.w3.org/2000/svg">
<g id="Location">
<path id="Vector" d="M8.67161 1.94324C7.28085 1.94324 5.94705 2.49572 4.96363 3.47913C3.98021 4.46255 3.42773 5.79635 3.42773 7.18711C3.42773 10.7267 8.0489 14.7252 8.24554 14.8956C8.36427 14.9972 8.51537 15.053 8.67161 15.053C8.82785 15.053 8.97894 14.9972 9.09767 14.8956C9.32709 14.7252 13.9155 10.7267 13.9155 7.18711C13.9155 5.79635 13.363 4.46255 12.3796 3.47913C11.3962 2.49572 10.0624 1.94324 8.67161 1.94324ZM8.67161 13.5125C7.27543 12.2016 4.7387 9.37643 4.7387 7.18711C4.7387 6.14404 5.15306 5.14369 5.89062 4.40613C6.62819 3.66856 7.62854 3.25421 8.67161 3.25421C9.71468 3.25421 10.715 3.66856 11.4526 4.40613C12.1902 5.14369 12.6045 6.14404 12.6045 7.18711C12.6045 9.37643 10.0678 12.2081 8.67161 13.5125ZM8.67161 4.56518C8.15304 4.56518 7.64611 4.71895 7.21494 5.00705C6.78376 5.29515 6.4477 5.70464 6.24925 6.18374C6.05081 6.66284 5.99888 7.19002 6.10005 7.69863C6.20122 8.20723 6.45093 8.67442 6.81762 9.0411C7.1843 9.40779 7.65149 9.6575 8.16009 9.75867C8.6687 9.85984 9.19589 9.80792 9.67498 9.60947C10.1541 9.41102 10.5636 9.07496 10.8517 8.64378C11.1398 8.21261 11.2935 7.70568 11.2935 7.18711C11.2935 6.49173 11.0173 5.82483 10.5256 5.33312C10.0339 4.84141 9.36699 4.56518 8.67161 4.56518ZM8.67161 8.49808C8.41232 8.49808 8.15886 8.42119 7.94327 8.27714C7.72769 8.13309 7.55966 7.92835 7.46043 7.6888C7.36121 7.44925 7.33525 7.18566 7.38583 6.93136C7.43641 6.67705 7.56127 6.44346 7.74461 6.26012C7.92796 6.07678 8.16155 5.95192 8.41585 5.90133C8.67016 5.85075 8.93375 5.87671 9.1733 5.97594C9.41284 6.07516 9.61759 6.24319 9.76164 6.45878C9.90569 6.67437 9.98258 6.92783 9.98258 7.18711C9.98258 7.5348 9.84446 7.86825 9.5986 8.11411C9.35275 8.35996 9.0193 8.49808 8.67161 8.49808Z" fill="black"/>
</g>
</svg>
