<svg width="15" height="14" viewBox="0 0 15 14" fill="none" xmlns="http://www.w3.org/2000/svg">
<g id="Navigation / Map_Pin">
<path id="Vector" d="M7.74967 6.41658C8.39401 6.41658 8.91634 5.89425 8.91634 5.24992C8.91634 4.60559 8.39401 4.08325 7.74967 4.08325C7.10534 4.08325 6.58301 4.60559 6.58301 5.24992C6.58301 5.89425 7.10534 6.41658 7.74967 6.41658Z" stroke="#EFC41A" stroke-width="1.5" stroke-linecap="round" stroke-linejoin="round"/>
<path id="Vector_2" d="M7.75033 12.25C7.75033 12.25 11.8337 9.42308 11.8337 5.78846C11.8337 4.71739 11.4035 3.6902 10.6377 2.93284C9.8719 2.17548 8.83329 1.75 7.75033 1.75C6.66736 1.75 5.62875 2.17548 4.86297 2.93284C4.0972 3.6902 3.66699 4.71739 3.66699 5.78846C3.66699 9.42308 7.75033 12.25 7.75033 12.25Z" stroke="#EFC41A" stroke-width="1.5" stroke-linecap="round" stroke-linejoin="round"/>
</g>
</svg>
