<svg width="20" height="21" viewBox="0 0 20 21" fill="none" xmlns="http://www.w3.org/2000/svg">
<g id="Navigation / Map_Pin">
<path id="Vector" d="M9.99967 9.94063C10.9201 9.94063 11.6663 9.19444 11.6663 8.27397C11.6663 7.35349 10.9201 6.6073 9.99967 6.6073C9.0792 6.6073 8.33301 7.35349 8.33301 8.27397C8.33301 9.19444 9.0792 9.94063 9.99967 9.94063Z" stroke="#14181F" stroke-width="1.5" stroke-linecap="round" stroke-linejoin="round"/>
<path id="Vector_2" d="M10.0003 18.2739C10.0003 18.2739 15.8337 14.2355 15.8337 9.04316C15.8337 7.51306 15.2191 6.04564 14.1251 4.96369C13.0312 3.88175 11.5474 3.27393 10.0003 3.27393C8.45323 3.27393 6.9695 3.88175 5.87554 4.96369C4.78157 6.04564 4.16699 7.51306 4.16699 9.04316C4.16699 14.2355 10.0003 18.2739 10.0003 18.2739Z" stroke="#14181F" stroke-width="1.5" stroke-linecap="round" stroke-linejoin="round"/>
</g>
</svg>
