<svg width="20" height="21" viewBox="0 0 20 21" fill="none" xmlns="http://www.w3.org/2000/svg">
<g id="mdi:crown-circle-outline">
<path id="Vector" d="M10 1.27393C5.023 1.27393 1 5.32393 1 10.2739C1 15.2239 5.05 19.2739 10 19.2739C14.95 19.2739 19 15.2239 19 10.2739C19 5.32393 14.95 1.27393 10 1.27393ZM10 17.4739C6.022 17.4739 2.8 14.2519 2.8 10.2739C2.8 6.29593 6.022 3.07393 10 3.07393C13.978 3.07393 17.2 6.29593 17.2 10.2739C17.2 14.2519 13.978 17.4739 10 17.4739ZM6.4 12.0739L5.5 6.67393L8.2 8.47393L10 5.77393L11.8 8.47393L14.5 6.67393L13.6 12.0739H6.4ZM6.904 13.8739C6.598 13.8739 6.4 13.6759 6.4 13.3699V12.9739H13.6V13.3699C13.6 13.6759 13.402 13.8739 13.096 13.8739H6.904Z" fill="#EFB309"/>
</g>
</svg>
