<svg width="251" height="46" viewBox="0 0 251 46" fill="none" xmlns="http://www.w3.org/2000/svg">
<g id="PH New Logo" clip-path="url(#clip0_51_4346)">
<g id="g12">
<path id="path18" d="M16.0126 16.2023L14.7919 14.9817C14.5201 14.7105 14.1816 14.5749 13.7748 14.5749H12.0963C11.7908 14.5749 11.5025 14.6432 11.2319 14.7782L5.28106 17.5248V32.0708H13.7748C14.1816 32.0708 14.5201 31.9358 14.7919 31.6641L16.0126 30.4435C16.2838 30.1723 16.42 29.8506 16.42 29.4772V17.1686C16.42 16.7964 16.2838 16.4741 16.0126 16.2023ZM11.8927 10.6077H14.5884C15.7408 10.6077 16.7417 11.0144 17.5892 11.8283L19.624 13.863C20.4379 14.7105 20.8447 15.7114 20.8447 16.8637V29.7312C20.8447 30.9188 20.4379 31.9358 19.624 32.7828L17.5892 34.7661C16.7759 35.6145 15.7754 36.0381 14.5884 36.0381H5.28106V43.9213L4.06039 45.193H0.90625V10.6077H4.77206L5.2385 13.1195L9.3495 11.1663C10.1637 10.7944 11.0109 10.6077 11.8927 10.6077Z" fill="#EFC41A"/>
<path id="path20" d="M36.9704 10.6063H38.8504V14.5736H37.1721C36.7654 14.5736 36.4425 14.6586 36.2055 14.8279L30.4077 19.1V36.0367H25.9824V10.6063H29.6444L30.2686 14.3372L34.327 11.2207C34.8694 10.8116 35.7497 10.6063 36.9704 10.6063Z" fill="#EFC41A"/>
<path id="path22" d="M57.5652 16.2009L56.3445 14.9803C56.0721 14.7092 55.7342 14.5736 55.3268 14.5736H49.1219C48.7151 14.5736 48.3754 14.7092 48.1042 14.9803L46.8836 16.2009C46.6121 16.4727 46.4768 16.795 46.4768 17.1672V29.4758C46.4768 29.8492 46.6121 30.1709 46.8836 30.4421L48.1042 31.6627C48.3754 31.9345 48.7151 32.0695 49.1219 32.0695H55.3268C55.7342 32.0695 56.0721 31.9345 56.3445 31.6627L57.5652 30.4421C57.8358 30.1709 57.9717 29.8492 57.9717 29.4758V17.1672C57.9717 16.795 57.8358 16.4727 57.5652 16.2009ZM48.3078 10.6063H56.1407C57.2928 10.6063 58.2937 11.0305 59.1418 11.8777L61.176 13.8616C61.9899 14.7092 62.397 15.71 62.397 16.8624V29.7807C62.397 30.9336 61.9899 31.9345 61.176 32.7814L59.1418 34.7647C58.2937 35.6131 57.2928 36.0367 56.1407 36.0367H48.3078C47.1548 36.0367 46.1542 35.6131 45.3069 34.7647L43.2727 32.7814C42.4588 31.9345 42.0518 30.9336 42.0518 29.7807V16.8624C42.0518 15.71 42.4588 14.7092 43.2727 13.8616L45.3069 11.8777C46.1542 11.0305 47.1548 10.6063 48.3078 10.6063Z" fill="#EFC41A"/>
<path id="path24" d="M67.7898 1.75735H72.8759V6.84334H67.7898V1.75735ZM68.0952 10.6068H72.5205V38.9363C72.5205 40.055 72.13 41.0547 71.3504 41.937L69.2651 44.0223C68.3827 44.8361 67.383 45.2429 66.2642 45.2429H63.6699V41.2756H65.4504C65.8232 41.2756 66.1449 41.14 66.4167 40.8689L67.6884 39.5972C67.959 39.3254 68.0952 39.0037 68.0952 38.6309V10.6068Z" fill="#EFC41A"/>
<path id="path26" d="M92.6625 16.2009L91.4419 14.9803C91.1698 14.7092 90.8315 14.5736 90.4245 14.5736H84.8804C84.4736 14.5736 84.1345 14.7092 83.8633 14.9803L82.6427 16.2009C82.3372 16.4727 82.1848 16.795 82.1848 17.1672V21.0834H93.1204V17.1672C93.1204 16.795 92.9674 16.4727 92.6625 16.2009ZM84.0668 10.6063H91.2383C92.3905 10.6063 93.391 11.0305 94.2395 11.8777L96.274 13.8616C97.0873 14.7092 97.4946 15.71 97.4946 16.8624V23.7792L96.2229 24.9999H82.1848V29.4758C82.1848 29.8492 82.3372 30.1709 82.6427 30.4421L83.8633 31.6627C84.1345 31.9345 84.4736 32.0695 84.8804 32.0695H90.4245C90.8315 32.0695 91.1698 31.9345 91.4419 31.6627L93.0693 30.035L96.019 32.9852L94.2395 34.7647C93.391 35.6131 92.3905 36.0367 91.2383 36.0367H84.0668C82.8796 36.0367 81.8799 35.6131 81.066 34.7647L79.0312 32.7814C78.2173 31.9345 77.8105 30.9336 77.8105 29.7807V16.8624C77.8105 15.71 78.2173 14.7092 79.0312 13.8616L81.066 11.8777C81.8799 11.0305 82.8796 10.6063 84.0668 10.6063Z" fill="#EFC41A"/>
<path id="path28" d="M107.97 10.6063H115.803C116.955 10.6063 117.94 11.0305 118.753 11.8777L120.533 13.6578L117.583 16.608L115.956 14.9803C115.718 14.7092 115.396 14.5736 114.989 14.5736H108.784C108.377 14.5736 108.038 14.7092 107.767 14.9803L106.495 16.2009C106.224 16.4727 106.088 16.795 106.088 17.1672V29.4758C106.088 29.8492 106.224 30.1709 106.495 30.4421L107.767 31.6627C108.038 31.9345 108.377 32.0695 108.784 32.0695H114.989C115.396 32.0695 115.718 31.9345 115.956 31.6627L117.634 30.035L120.584 32.9852L118.753 34.7647C117.94 35.6131 116.955 36.0367 115.803 36.0367H107.97C106.783 36.0367 105.783 35.6131 104.969 34.7647L102.935 32.7814C102.121 31.9345 101.714 30.9336 101.714 29.7807V16.8624C101.714 15.71 102.121 14.7092 102.935 13.8616L104.969 11.8777C105.783 11.0305 106.783 10.6063 107.97 10.6063Z" fill="#EFC41A"/>
<path id="path30" d="M126.941 4.75759H131.316V10.6063H136.86V14.5736H131.316V29.4758C131.316 29.8492 131.451 30.1709 131.723 30.4421L132.994 31.7132C133.265 31.9513 133.604 32.0695 134.012 32.0695H136.86V34.8161L135.588 36.0367H133.198C132.045 36.0367 131.044 35.63 130.197 34.8161L128.162 32.7814C127.349 31.9676 126.941 30.9679 126.941 29.7807V14.5736H123.025V11.8269L124.246 10.6063H126.941V4.75759Z" fill="#EFC41A"/>
<path id="path32" d="M162.11 4.52658H164.902V36.0367H160.716V21.6769H146.128V36.0367H141.986V5.87716L143.339 4.52658H146.128V17.8508H160.716V5.87716L162.11 4.52658Z" fill="white"/>
<path id="path34" d="M177.548 4.52658H189.524L190.874 5.87716V8.35295H178.54C178.18 8.35295 177.879 8.47348 177.639 8.71276L176.514 9.83825C176.275 10.0787 176.153 10.3641 176.153 10.6937V18.3462H188.398V22.2175H176.153V29.8699C176.153 30.2005 176.275 30.4849 176.514 30.7251L177.639 31.8506C177.879 32.091 178.18 32.2107 178.54 32.2107H190.874V34.6862L189.524 36.0367H177.548C176.499 36.0367 175.613 35.6764 174.892 34.9565L173.093 33.1557C172.372 32.4059 172.012 31.5058 172.012 30.4545V10.1085C172.012 9.05808 172.372 8.15769 173.093 7.40737L174.892 5.60658C175.613 4.88668 176.499 4.52658 177.548 4.52658Z" fill="white"/>
<path id="path36" d="M212.299 9.83825L211.173 8.71276C210.934 8.47348 210.633 8.35295 210.275 8.35295H200.731V18.3911H210.275C210.633 18.3911 210.934 18.2712 211.173 18.0307L212.299 16.9058C212.538 16.6659 212.659 16.3806 212.659 16.05V10.6937C212.659 10.3641 212.538 10.0787 212.299 9.83825ZM197.939 4.52658H211.265C212.314 4.52658 213.2 4.88668 213.921 5.60658L215.72 7.40737C216.47 8.15769 216.845 9.05808 216.845 10.1085V16.6807C216.845 17.7007 216.47 18.5863 215.72 19.3367L213.921 21.1366C213.62 21.4373 213.303 21.6476 212.976 21.7673L212.202 21.8157L218.107 34.2812L216.352 36.0367H214.405L207.844 22.1722H200.731V36.0367H196.589V5.87716L197.939 4.52658Z" fill="white"/>
<path id="path38" d="M242.87 18.0026V27.9793C242.87 28.3099 242.734 28.5943 242.465 28.8345L239.449 31.8506C239.207 32.091 238.908 32.2107 238.545 32.2107H231.411C231.047 32.2107 230.746 32.1008 230.507 31.8795L227.491 28.864C227.239 28.6236 227.115 28.337 227.115 28.0059V18.0026H222.974V28.5639C222.974 29.615 223.334 30.5 224.055 31.2199L227.789 34.9565C228.539 35.6764 229.423 36.0367 230.442 36.0367H239.514C240.533 36.0367 241.416 35.6666 242.167 34.9266L245.901 31.1906C246.642 30.4728 247.012 29.5898 247.012 28.542V18.0026H242.87Z" fill="white"/>
<path id="path40" d="M239.511 12.4294H247.954V8.35287C247.954 7.31452 247.502 6.31753 246.695 5.66528C244.66 4.02165 241.39 2.46812 239.511 2.41141V12.4294Z" fill="#EFC41A"/>
<path id="path42" d="M238.201 1.00912H235.586V4.86473H234.278V1.00912H231.663V12.4294H238.201V1.00912Z" fill="#EFC41A"/>
<path id="path44" d="M249.164 13.743H247.953V13.7389H222.054C222.054 13.7403 222.054 13.7415 222.054 13.743H220.819C220.311 13.743 220.036 14.0603 220.036 14.6493V17.0964C220.036 17.6855 220.311 18.0024 220.819 18.0024H249.164C249.672 18.0024 249.947 17.6855 249.947 17.0964V14.6493C249.947 14.0603 249.672 13.743 249.164 13.743Z" fill="#EFC41A"/>
<path id="path46" d="M230.354 12.4294V2.40963C228.513 2.44981 225.899 3.88371 223.858 5.46796C222.806 6.28534 222.174 7.0203 222.15 8.35287C222.124 9.7649 222.082 11.0156 222.064 12.4294H230.354Z" fill="#EFC41A"/>
</g>
</g>
<defs>
<clipPath id="clip0_51_4346">
<rect width="249.187" height="44.7259" fill="white" transform="translate(0.90625 0.51709)"/>
</clipPath>
</defs>
</svg>
