<svg width="149" height="28" viewBox="0 0 149 28" fill="none" xmlns="http://www.w3.org/2000/svg">
<g clip-path="url(#clip0_124_5153)">
<path d="M9.10654 9.90887L8.37748 9.17984C8.21515 9.01788 8.01295 8.93689 7.76999 8.93689H6.76744C6.585 8.93689 6.4128 8.97765 6.25117 9.05828L2.69692 10.6988V19.3867H7.76999C8.01295 19.3867 8.21515 19.306 8.37748 19.1437L9.10654 18.4147C9.26851 18.2527 9.34985 18.0606 9.34985 17.8376V10.486C9.34985 10.2637 9.26851 10.0712 9.10654 9.90887ZM6.64587 6.56736H8.2559C8.94421 6.56736 9.54199 6.81031 10.0482 7.29639L11.2635 8.51168C11.7496 9.01787 11.9926 9.61564 11.9926 10.3039V17.9893C11.9926 18.6986 11.7496 19.306 11.2635 19.8119L10.0482 20.9965C9.56246 21.5032 8.96485 21.7562 8.2559 21.7562H2.69692V26.4646L1.96786 27.2241H0.0839844V6.56736H2.39291L2.67151 8.06759L5.12688 6.901C5.61316 6.67886 6.11919 6.56736 6.64587 6.56736Z" fill="#EFC41A"/>
<path d="M21.6243 6.56654H22.7472V8.93607H21.7448C21.5018 8.93607 21.309 8.98688 21.1675 9.08798L17.7046 11.6396V21.7554H15.0615V6.56654H17.2487L17.6215 8.79492L20.0455 6.93352C20.3694 6.68916 20.8952 6.56654 21.6243 6.56654Z" fill="#EFC41A"/>
<path d="M33.9249 9.90805L33.1958 9.17902C33.0331 9.01705 32.8313 8.93607 32.588 8.93607H28.882C28.639 8.93607 28.4361 9.01705 28.2741 9.17902L27.5451 9.90805C27.3829 10.0704 27.3021 10.2629 27.3021 10.4852V17.8367C27.3021 18.0598 27.3829 18.2519 27.5451 18.4139L28.2741 19.1429C28.4361 19.3052 28.639 19.3858 28.882 19.3858H32.588C32.8313 19.3858 33.0331 19.3052 33.1958 19.1429L33.9249 18.4139C34.0865 18.2519 34.1677 18.0598 34.1677 17.8367V10.4852C34.1677 10.2629 34.0865 10.0704 33.9249 9.90805ZM28.3957 6.56654H33.0741C33.7622 6.56654 34.36 6.8199 34.8665 7.32592L36.0815 8.51086C36.5676 9.01705 36.8108 9.61482 36.8108 10.3031V18.0188C36.8108 18.7074 36.5676 19.3052 36.0815 19.8111L34.8665 20.9956C34.36 21.5024 33.7622 21.7554 33.0741 21.7554H28.3957C27.707 21.7554 27.1094 21.5024 26.6034 20.9956L25.3884 19.8111C24.9023 19.3052 24.6592 18.7074 24.6592 18.0188V10.3031C24.6592 9.61482 24.9023 9.01705 25.3884 8.51086L26.6034 7.32592C27.1094 6.8199 27.707 6.56654 28.3957 6.56654Z" fill="#EFC41A"/>
<path d="M40.032 1.2813H43.0698V4.319H40.032V1.2813ZM40.2144 6.56679H42.8575V23.4872C42.8575 24.1553 42.6242 24.7524 42.1586 25.2794L40.9131 26.5249C40.3861 27.0109 39.789 27.2539 39.1208 27.2539H37.5713V24.8844H38.6347C38.8574 24.8844 39.0495 24.8034 39.2118 24.6414L39.9714 23.8819C40.1331 23.7195 40.2144 23.5274 40.2144 23.3047V6.56679Z" fill="#EFC41A"/>
<path d="M54.8872 9.90805L54.1582 9.17902C53.9957 9.01705 53.7936 8.93607 53.5505 8.93607H50.2392C49.9963 8.93607 49.7937 9.01705 49.6317 9.17902L48.9027 9.90805C48.7202 10.0704 48.6292 10.2629 48.6292 10.4852V12.8242H55.1607V10.4852C55.1607 10.2629 55.0693 10.0704 54.8872 9.90805ZM49.7533 6.56654H54.0366C54.7247 6.56654 55.3223 6.8199 55.8291 7.32592L57.0442 8.51086C57.53 9.01705 57.7733 9.61482 57.7733 10.3031V14.4343L57.0137 15.1634H48.6292V17.8367C48.6292 18.0598 48.7202 18.2519 48.9027 18.4139L49.6317 19.1429C49.7937 19.3052 49.9963 19.3858 50.2392 19.3858H53.5505C53.7936 19.3858 53.9957 19.3052 54.1582 19.1429L55.1302 18.1707L56.892 19.9328L55.8291 20.9956C55.3223 21.5024 54.7247 21.7554 54.0366 21.7554H49.7533C49.0442 21.7554 48.4471 21.5024 47.961 20.9956L46.7457 19.8111C46.2596 19.3052 46.0166 18.7074 46.0166 18.0188V10.3031C46.0166 9.61482 46.2596 9.01705 46.7457 8.51086L47.961 7.32592C48.4471 6.8199 49.0442 6.56654 49.7533 6.56654Z" fill="#EFC41A"/>
<path d="M64.0306 6.56654H68.709C69.3971 6.56654 69.985 6.8199 70.4708 7.32592L71.5342 8.38912L69.7723 10.1512L68.8 9.17902C68.6582 9.01705 68.466 8.93607 68.2229 8.93607H64.5167C64.2738 8.93607 64.0709 9.01705 63.9091 9.17902L63.1497 9.90805C62.9875 10.0704 62.9067 10.2629 62.9067 10.4852V17.8367C62.9067 18.0598 62.9875 18.2519 63.1497 18.4139L63.9091 19.1429C64.0709 19.3052 64.2738 19.3858 64.5167 19.3858H68.2229C68.466 19.3858 68.6582 19.3052 68.8 19.1429L69.8026 18.1707L71.5644 19.9328L70.4708 20.9956C69.985 21.5024 69.3971 21.7554 68.709 21.7554H64.0306C63.3213 21.7554 62.7243 21.5024 62.2382 20.9956L61.0234 19.8111C60.5371 19.3052 60.2939 18.7074 60.2939 18.0188V10.3031C60.2939 9.61482 60.5371 9.01705 61.0234 8.51086L62.2382 7.32592C62.7243 6.8199 63.3213 6.56654 64.0306 6.56654Z" fill="#EFC41A"/>
<path d="M75.3614 3.07328H77.974V6.56654H81.2852V8.93607H77.974V17.8367C77.974 18.0598 78.0549 18.2519 78.2171 18.4139L78.9765 19.1731C79.1385 19.3153 79.341 19.3858 79.5842 19.3858H81.2852V21.0263L80.526 21.7554H79.0981C78.4094 21.7554 77.8116 21.5124 77.3058 21.0263L76.0904 19.8111C75.6047 19.325 75.3614 18.7279 75.3614 18.0188V8.93607H73.0225V7.29557L73.7515 6.56654H75.3614V3.07328Z" fill="#EFC41A"/>
<path d="M96.3659 2.93531H98.0333V21.7554H95.5331V13.1786H86.8204V21.7554H84.3467V3.74197L85.1548 2.93531H86.8204V10.8934H95.5331V3.74197L96.3659 2.93531Z" fill="black"/>
<path d="M105.587 2.93531H112.74L113.546 3.74197V5.22068H106.18C105.964 5.22068 105.784 5.29267 105.641 5.43558L104.969 6.10781C104.826 6.25142 104.754 6.42186 104.754 6.61876V11.1893H112.068V13.5015H104.754V18.0721C104.754 18.2695 104.826 18.4394 104.969 18.5829L105.641 19.2551C105.784 19.3987 105.964 19.4702 106.18 19.4702H113.546V20.9487L112.74 21.7554H105.587C104.96 21.7554 104.431 21.5401 104.001 21.1101L102.926 20.0346C102.496 19.5868 102.28 19.0492 102.28 18.4213V6.26924C102.28 5.64184 102.496 5.10406 102.926 4.65591L104.001 3.58036C104.431 3.15039 104.96 2.93531 105.587 2.93531Z" fill="black"/>
<path d="M126.342 6.10781L125.67 5.43558C125.527 5.29267 125.347 5.22068 125.134 5.22068H119.433V11.2162H125.134C125.347 11.2162 125.527 11.1445 125.67 11.0009L126.342 10.329C126.485 10.1858 126.557 10.0153 126.557 9.8179V6.61876C126.557 6.42186 126.485 6.25142 126.342 6.10781ZM117.765 2.93531H125.725C126.351 2.93531 126.88 3.15039 127.311 3.58036L128.385 4.65591C128.834 5.10406 129.058 5.64184 129.058 6.26924V10.1946C129.058 10.8038 128.834 11.3328 128.385 11.7809L127.311 12.8559C127.131 13.0356 126.942 13.1612 126.746 13.2326L126.284 13.2616L129.811 20.7068L128.763 21.7554H127.6L123.681 13.4745H119.433V21.7554H116.959V3.74197L117.765 2.93531Z" fill="black"/>
<path d="M144.602 10.9841V16.9429C144.602 17.1403 144.521 17.3103 144.36 17.4537L142.559 19.2551C142.414 19.3987 142.236 19.4702 142.019 19.4702H137.758C137.541 19.4702 137.361 19.4045 137.218 19.2724L135.417 17.4713C135.267 17.3277 135.192 17.1566 135.192 16.9588V10.9841H132.719V17.2921C132.719 17.9198 132.934 18.4484 133.365 18.8784L135.595 21.1101C136.043 21.5401 136.57 21.7554 137.179 21.7554H142.598C143.206 21.7554 143.734 21.5343 144.182 21.0923L146.412 18.8609C146.855 18.4322 147.076 17.9048 147.076 17.279V10.9841H144.602Z" fill="black"/>
<path d="M142.596 7.65527H147.638V5.22046C147.638 4.60029 147.368 4.00481 146.887 3.61524C145.671 2.63355 143.718 1.70568 142.596 1.6718V7.65527Z" fill="#EFC41A"/>
<path d="M141.813 0.834504H140.251V3.13735H139.47V0.834504H137.908V7.65552H141.813V0.834504Z" fill="#EFC41A"/>
<path d="M148.361 8.44035H147.638V8.43787H132.169C132.169 8.43876 132.169 8.43946 132.169 8.44035H131.431C131.128 8.44035 130.964 8.62983 130.964 8.98165V10.4432C130.964 10.7951 131.128 10.9844 131.431 10.9844H148.361C148.665 10.9844 148.829 10.7951 148.829 10.4432V8.98165C148.829 8.62983 148.665 8.44035 148.361 8.44035Z" fill="#EFC41A"/>
<path d="M137.127 7.65527V1.67074C136.028 1.69474 134.466 2.55116 133.247 3.49739C132.619 3.98559 132.241 4.42456 132.227 5.22046C132.211 6.06382 132.186 6.81085 132.176 7.65527H137.127Z" fill="#EFC41A"/>
</g>
<defs>
<clipPath id="clip0_124_5153">
<rect width="148.832" height="26.7134" fill="white" transform="translate(0.0839844 0.540527)"/>
</clipPath>
</defs>
</svg>
