<svg width="21" height="21" viewBox="0 0 21 21" fill="none" xmlns="http://www.w3.org/2000/svg">
<g id="Communication / Phone">
<path id="Vector" d="M6.87161 2.72607H4.57895C3.70692 2.72607 3 3.43299 3 4.30502C3 11.7173 9.00881 17.7261 16.4211 17.7261C17.2931 17.7261 18 17.0192 18 16.1471V13.8545C18 13.173 17.5851 12.5601 16.9523 12.307L14.7559 11.4284C14.1875 11.2011 13.5403 11.3036 13.07 11.6955L12.5026 12.1684C11.8404 12.7202 10.8666 12.676 10.2571 12.0665L8.65957 10.469C8.05004 9.85945 8.00587 8.8857 8.55771 8.22349L9.03053 7.6561C9.42244 7.18581 9.52498 6.53853 9.29763 5.97014L8.41907 3.77376C8.16597 3.14099 7.55312 2.72607 6.87161 2.72607Z" stroke="#3D3D3D" stroke-linecap="round" stroke-linejoin="round"/>
</g>
</svg>
