<svg width="24" height="25" viewBox="0 0 24 25" fill="none" xmlns="http://www.w3.org/2000/svg">
<g id="Right Arrow">
<path id="Vector" d="M14.8297 11.7899L10.5897 7.54995C10.4967 7.45622 10.3861 7.38183 10.2643 7.33106C10.1424 7.28029 10.0117 7.25415 9.8797 7.25415C9.74769 7.25415 9.61698 7.28029 9.49512 7.33106C9.37326 7.38183 9.26266 7.45622 9.1697 7.54995C8.98345 7.73731 8.87891 7.99076 8.87891 8.25495C8.87891 8.51913 8.98345 8.77259 9.1697 8.95995L12.7097 12.4999L9.1697 16.0399C8.98345 16.2273 8.87891 16.4808 8.87891 16.7449C8.87891 17.0091 8.98345 17.2626 9.1697 17.4499C9.26314 17.5426 9.37395 17.616 9.49579 17.6657C9.61763 17.7155 9.74809 17.7407 9.8797 17.7399C10.0113 17.7407 10.1418 17.7155 10.2636 17.6657C10.3854 17.616 10.4963 17.5426 10.5897 17.4499L14.8297 13.2099C14.9234 13.117 14.9978 13.0064 15.0486 12.8845C15.0994 12.7627 15.1255 12.632 15.1255 12.4999C15.1255 12.3679 15.0994 12.2372 15.0486 12.1154C14.9978 11.9935 14.9234 11.8829 14.8297 11.7899Z" fill="black"/>
</g>
</svg>
