<svg width="12" height="12" viewBox="0 0 12 12" fill="none" xmlns="http://www.w3.org/2000/svg">
<g id="Communication / Share_Android">
<path id="Vector" d="M9 10.5C9.82843 10.5 10.5 9.82843 10.5 9C10.5 8.17157 9.82843 7.5 9 7.5C8.17157 7.5 7.5 8.17157 7.5 9C7.5 9.82843 8.17157 10.5 9 10.5Z" stroke="#14181F" stroke-linecap="round" stroke-linejoin="round"/>
<path id="Vector_2" d="M4.5 6.75L7.5 8.25" stroke="#14181F" stroke-linecap="round" stroke-linejoin="round"/>
<path id="Vector_3" d="M3 7.5C3.82843 7.5 4.5 6.82843 4.5 6C4.5 5.17157 3.82843 4.5 3 4.5C2.17157 4.5 1.5 5.17157 1.5 6C1.5 6.82843 2.17157 7.5 3 7.5Z" stroke="#14181F" stroke-linecap="round" stroke-linejoin="round"/>
<path id="Vector_4" d="M7.5 3.75L4.5 5.25" stroke="#14181F" stroke-linecap="round" stroke-linejoin="round"/>
<path id="Vector_5" d="M9 4.5C9.82843 4.5 10.5 3.82843 10.5 3C10.5 2.17157 9.82843 1.5 9 1.5C8.17157 1.5 7.5 2.17157 7.5 3C7.5 3.82843 8.17157 4.5 9 4.5Z" stroke="#14181F" stroke-linecap="round" stroke-linejoin="round"/>
</g>
</svg>
