<svg width="23" height="23" viewBox="0 0 23 23" fill="none" xmlns="http://www.w3.org/2000/svg">
<g id="Interface / Star">
<path id="Vector" d="M14.5919 8.27602L12.2763 3.25583C12.1129 2.90154 11.6093 2.90154 11.4459 3.25583L9.13033 8.27602C9.06373 8.42041 8.92689 8.51983 8.76899 8.53855L3.27894 9.18949C2.8915 9.23542 2.7359 9.71431 3.02235 9.97921L7.08128 13.7328C7.19802 13.8408 7.25029 14.0016 7.2193 14.1576L6.14186 19.5801C6.06582 19.9627 6.47318 20.2587 6.81363 20.0681L11.6378 17.3678C11.7765 17.2901 11.9457 17.2901 12.0844 17.3678L16.9086 20.0681C17.249 20.2587 17.6564 19.9627 17.5804 19.5801L16.5029 14.1576C16.4719 14.0016 16.5242 13.8408 16.6409 13.7328L20.6999 9.97921C20.9863 9.71431 20.8307 9.23542 20.4433 9.18949L14.9532 8.53855C14.7953 8.51983 14.6585 8.42041 14.5919 8.27602Z" fill="#EFC41A" stroke="#EFC41A" stroke-width="1.37166" stroke-linecap="round" stroke-linejoin="round"/>
</g>
</svg>
