<svg width="23" height="23" viewBox="0 0 23 23" fill="none" xmlns="http://www.w3.org/2000/svg">
<g id="Interface / Star">
<path id="Vector" d="M13.8116 8.27602L11.496 3.25583C11.3326 2.90154 10.8291 2.90154 10.6657 3.25583L8.35006 8.27602C8.28346 8.42041 8.14662 8.51983 7.98871 8.53855L2.49867 9.18949C2.11122 9.23542 1.95562 9.71431 2.24207 9.97921L6.301 13.7328C6.41775 13.8408 6.47001 14.0016 6.43902 14.1576L5.36158 19.5801C5.28554 19.9627 5.69291 20.2587 6.03336 20.0681L10.8575 17.3678C10.9963 17.2901 11.1654 17.2901 11.3042 17.3678L16.1283 20.0681C16.4688 20.2587 16.8761 19.9627 16.8001 19.5801L15.7226 14.1576C15.6916 14.0016 15.7439 13.8408 15.8607 13.7328L19.9196 9.97921C20.206 9.71431 20.0504 9.23542 19.663 9.18949L14.173 8.53855C14.015 8.51983 13.8782 8.42041 13.8116 8.27602Z" stroke="#EFC41A" stroke-width="1.37166" stroke-linecap="round" stroke-linejoin="round"/>
</g>
</svg>
