<svg width="18" height="18" viewBox="0 0 18 18" fill="none" xmlns="http://www.w3.org/2000/svg">
<g id="Tick" clip-path="url(#clip0_96_7078)">
<g id="Group">
<g id="Group_2">
<g id="Group_3">
<path id="Vector" d="M16.5906 5.17384C15.9349 5.46731 15.3046 5.85595 14.7122 6.31892C15.1494 7.21611 15.376 8.20127 15.3748 9.19932C15.3748 12.8348 12.4278 15.7818 8.79229 15.7818C5.15683 15.7818 2.20979 12.8348 2.20979 9.19932C2.20979 5.56386 5.15683 2.61682 8.79229 2.61682C9.84056 2.61682 10.8309 2.86284 11.7105 3.29893C12.3314 2.78403 12.9939 2.32157 13.6913 1.91633C12.2442 0.940176 10.5379 0.41992 8.79229 0.422649C3.9451 0.422649 0.015625 4.35213 0.015625 9.19932C0.015625 14.0465 3.9451 17.976 8.79229 17.976C13.6395 17.976 17.569 14.0465 17.569 9.19932C17.5702 7.79847 17.2347 6.41785 16.5906 5.17384Z" fill="#00A976"/>
<path id="Vector_2" d="M8.10676 10.2203C7.31604 9.26226 6.35664 8.47977 5.17453 7.8728C5.02423 7.79312 4.85699 7.7507 4.68688 7.74911C3.74585 7.74911 3.12381 9.12924 4.13642 9.64926C5.76696 10.4863 6.79849 11.6273 7.62322 13.2534C7.79272 13.5881 8.15503 13.7504 8.51762 13.7504C8.97071 13.7504 9.42463 13.4967 9.50335 13.008C10.124 9.14953 12.9932 5.29 16.7386 3.92879C17.8497 3.52479 17.5313 1.87807 16.5485 1.87807C16.4377 1.87807 16.3184 1.89891 16.1917 1.94499C12.5269 3.27657 9.45233 6.5127 8.10676 10.2203Z" fill="#00A976"/>
</g>
</g>
</g>
</g>
<defs>
<clipPath id="clip0_96_7078">
<rect width="17.5533" height="17.5533" fill="white" transform="translate(0.015625 0.422638)"/>
</clipPath>
</defs>
</svg>
