<svg width="28" height="29" viewBox="0 0 28 29" fill="none" xmlns="http://www.w3.org/2000/svg">
<g id="Twitter" clip-path="url(#clip0_51_4394)">
<path id="Vector" d="M14 28.9369C21.732 28.9369 28 22.6689 28 14.9369C28 7.20496 21.732 0.936951 14 0.936951C6.26801 0.936951 0 7.20496 0 14.9369C0 22.6689 6.26801 28.9369 14 28.9369Z" fill="#E1BC5F"/>
<path id="Vector_2" d="M22.9766 9.36788C22.3163 9.66091 21.607 9.859 20.8613 9.94804C21.6224 9.49229 22.2054 8.77009 22.4807 7.91055C21.7577 8.33995 20.9665 8.64225 20.1414 8.80432C19.4699 8.08858 18.5124 7.64172 17.4531 7.64172C15.4197 7.64172 13.7707 9.29011 13.7707 11.3247C13.7707 11.6129 13.8031 11.8942 13.8655 12.1642C10.8046 12.0103 8.09089 10.5441 6.27445 8.3162C5.95728 8.86032 5.77573 9.49296 5.77573 10.168C5.77573 11.4455 6.426 12.5728 7.41409 13.2331C6.82916 13.2149 6.25707 13.0571 5.74564 12.7726V12.8192C5.74564 14.6037 7.01495 16.0918 8.6999 16.4302C8.39038 16.515 8.06555 16.5593 7.7295 16.5593C7.49191 16.5593 7.26139 16.5368 7.0362 16.4945C7.50488 17.9572 8.86505 19.0219 10.4762 19.052C9.21574 20.0401 7.62748 20.6291 5.90247 20.6291C5.60535 20.6291 5.31171 20.6113 5.02344 20.5766C6.65357 21.6219 8.58909 22.2321 10.669 22.2321C17.443 22.2321 21.1478 16.6201 21.1478 11.7533C21.1478 11.5935 21.1443 11.4349 21.1366 11.2769C21.8584 10.7548 22.4814 10.1084 22.9766 9.36788Z" fill="#111111"/>
</g>
<defs>
<clipPath id="clip0_51_4394">
<rect width="28" height="28" fill="white" transform="translate(0 0.93689)"/>
</clipPath>
</defs>
</svg>
