<svg width="21" height="21" viewBox="0 0 21 21" fill="none" xmlns="http://www.w3.org/2000/svg">
<g id="Whatsapp" clip-path="url(#clip0_164_13235)">
<path id="Vector" d="M15.6358 5.66756C14.2976 4.30117 12.4478 3.55945 10.5586 3.55945C6.54408 3.55945 3.31671 6.7997 3.35609 10.7426C3.35609 11.9919 3.71032 13.2021 4.30067 14.2952L3.27734 18.0039L7.09511 17.0279C8.15776 17.6135 9.33852 17.8868 10.5192 17.8868C14.4944 17.8868 17.7218 14.6465 17.7218 10.7036C17.7218 8.79066 16.974 6.9949 15.6358 5.66756ZM10.5586 16.6765C9.49595 16.6765 8.43325 16.4033 7.52804 15.8567L7.29186 15.7396L5.00914 16.3252L5.59949 14.1L5.44206 13.8658C3.71032 11.094 4.53679 7.42432 7.3706 5.70661C10.2044 3.98888 13.8647 4.80869 15.5964 7.61952C17.3282 10.4303 16.5017 14.061 13.6679 15.7787C12.7627 16.3642 11.6606 16.6765 10.5586 16.6765ZM14.0221 12.3432L13.5892 12.148C13.5892 12.148 12.9594 11.8748 12.5659 11.6795C12.5265 11.6795 12.4871 11.6405 12.4478 11.6405C12.3297 11.6405 12.251 11.6795 12.1723 11.7186C12.1723 11.7186 12.133 11.7577 11.5819 12.3823C11.5426 12.4604 11.4639 12.4994 11.3851 12.4994H11.3458C11.3064 12.4994 11.2277 12.4604 11.1883 12.4213L10.9916 12.3432C10.5586 12.148 10.165 11.9138 9.85018 11.6015C9.77144 11.5234 9.65338 11.4453 9.57464 11.3672C9.29915 11.094 9.02366 10.7817 8.82685 10.4303L8.78748 10.3523C8.74811 10.3132 8.74811 10.2742 8.70879 10.1961C8.70879 10.118 8.70879 10.0399 8.74811 10.0009C8.74811 10.0009 8.90554 9.80569 9.02366 9.68859C9.10235 9.61048 9.14172 9.49338 9.22046 9.41533C9.29915 9.29817 9.33852 9.14202 9.29915 9.02492C9.25978 8.82971 8.78748 7.77568 8.66942 7.54142C8.59068 7.42432 8.51199 7.38527 8.39393 7.34621H8.27582C8.19713 7.34621 8.07907 7.34621 7.96096 7.34621C7.88227 7.34621 7.80353 7.38527 7.72484 7.38527L7.68546 7.42432C7.60672 7.46337 7.52803 7.54142 7.44929 7.58047C7.3706 7.65852 7.33123 7.73663 7.25254 7.81468C6.977 8.16604 6.81957 8.5955 6.81957 9.02492C6.81957 9.33723 6.89831 9.64954 7.01637 9.92279L7.05574 10.0399C7.40998 10.7817 7.88227 11.4453 8.51199 12.0309L8.66942 12.1871C8.78748 12.3042 8.90554 12.3823 8.98429 12.4994C9.81081 13.2021 10.7554 13.7096 11.818 13.9829C11.9362 14.0219 12.0936 14.0219 12.2116 14.061C12.3297 14.061 12.4871 14.061 12.6053 14.061C12.802 14.061 13.0382 13.9829 13.1956 13.9048C13.3137 13.8267 13.3924 13.8267 13.4711 13.7487L13.5498 13.6706C13.6285 13.5925 13.7073 13.5535 13.786 13.4754C13.8647 13.3973 13.9434 13.3192 13.9828 13.2411C14.0615 13.085 14.1008 12.8898 14.1402 12.6946C14.1402 12.6165 14.1402 12.4994 14.1402 12.4213C14.1402 12.4213 14.1008 12.3823 14.0221 12.3432Z" fill="white"/>
</g>
<defs>
<clipPath id="clip0_164_13235">
<rect width="20" height="20" fill="white" transform="translate(0.5 0.226074)"/>
</clipPath>
</defs>
</svg>
